# xmcd CD database file
#
# Track frame offsets:
#	150
#	11187
#	23296
#	36332
#	50708
#	64260
#	78833
#	93008
#	106163
#	120770
#	138688
#	152963
#	168639
#	184408
#	197378
#	211715
#	228879
#	250219
#	272945
#	294210
#	315282
#	334669
#
# Disc length: 4722 seconds
#
# Revision: 0
# Processed by: cddbd v1.5.2PL0 Copyright (c) Steve Scherf et al.
# Submitted via: CDex 1.70beta2
#
DISCID=23127016
DTITLE=Art Pepper - Work of Art 1 - mambo de la pinta
DYEAR=1952
DGENRE=Jazz
TTITLE0=Brown Gold
TTITLE1=These Foolish Things
TTITLE2=Surf Ride
TTITLE3=Holiday Flight
TTITLE4=Chili Pepper
TTITLE5=Suzy the Poodle
TTITLE6=Everything Happens to Me
TTITLE7=Tickle Toe
TTITLE8=Nutmeg
TTITLE9=Deep Purple
TTITLE10=Cinnamon
TTITLE11=What's New?
TTITLE12=Thyme Time
TTITLE13=Straight Life
TTITLE14=Art's Oregano
TTITLE15=The Way You Look Tonight
TTITLE16=Angel Wings
TTITLE17=Broadway
TTITLE18=Five More
TTITLE19=Funny Blues
TTITLE20=Mambo de l a pinta
TTITLE21=Minority
EXTD=YEAR: 1952
EXTT0=
EXTT1=
EXTT2=
EXTT3=
EXTT4=
EXTT5=
EXTT6=
EXTT7=
EXTT8=
EXTT9=
EXTT10=
EXTT11=
EXTT12=
EXTT13=
EXTT14=
EXTT15=
EXTT16=
EXTT17=
EXTT18=
EXTT19=
EXTT20=
EXTT21=
PLAYORDER=
